<?xml version="1.0" standalone="no"?>
<!DOCTYPE svg PUBLIC "-//W3C//DTD SVG 1.1//EN" "http://www.w3.org/Graphics/SVG/1.1/DTD/svg11.dtd" >
<svg xmlns="http://www.w3.org/2000/svg">
<metadata></metadata>
<defs>
<font id="function_proXBdOb" horiz-adv-x="1447" >
<font-face units-per-em="2048" ascent="1542" descent="-506" />
<missing-glyph horiz-adv-x="512" />
<glyph horiz-adv-x="2048" />
<glyph horiz-adv-x="2048" />
<glyph unicode="&#xd;" horiz-adv-x="2048" />
<glyph unicode=" "  horiz-adv-x="512" />
<glyph unicode="&#x09;" horiz-adv-x="512" />
<glyph unicode="&#xa0;" horiz-adv-x="512" />
<glyph unicode="!" horiz-adv-x="841" d="M176 211q0 95 76.5 159t191.5 64q116 0 194.5 -67.5t78.5 -167.5q0 -91 -80.5 -158.5t-187.5 -67.5q-110 0 -191.5 70.5t-81.5 167.5zM244 537l114 938h496l-115 -938h-495z" />
<glyph unicode="&#x22;" horiz-adv-x="890" d="M238 803l18 563h297l-121 -563h-194zM655 803l21 563h295l-121 -563h-195z" />
<glyph unicode="#" horiz-adv-x="1228" d="M170 412l27 219h217l24 129h-200l26 221h215l70 385h221l-72 -385h133l72 385h223l-71 -385h174l-27 -221h-188l-25 -129h180l-26 -219h-193l-78 -412h-223l76 412h-131l-76 -412h-221l76 412h-203zM635 631h131l25 129h-132z" />
<glyph unicode="$" d="M131 139l162 371q189 -180 426 -180q88 0 138 27.5t50 74.5q0 38 -31 58.5t-104 29.5q-235 29 -356 103q-71 44 -112.5 125.5t-41.5 175.5q0 122 65 227.5t177 163.5q97 51 233 71l15 113h323l-14 -113q152 -14 346 -100l-160 -362q-147 129 -336 129q-163 0 -163 -95 q0 -34 26 -47t127 -32q144 -26 219 -50.5t131 -62.5q69 -47 105.5 -123t36.5 -170q0 -109 -51.5 -206.5t-145.5 -164.5q-67 -49 -134 -73.5t-188 -44.5l-28 -244h-320l31 244q-231 36 -426 155z" />
<glyph unicode="%" horiz-adv-x="2168" d="M172 1012q0 170 120.5 279.5t309.5 109.5q199 0 323 -105t124 -272q0 -163 -130 -276t-319 -113t-308.5 105.5t-119.5 271.5zM440 0l1184 1366h266l-1179 -1366h-271zM535 1016q0 -36 20.5 -60t52.5 -24q34 0 60 31.5t26 72.5q0 36 -20 60t-51 24q-35 0 -61.5 -30.5 t-26.5 -73.5zM1288 342q0 170 120.5 279.5t309.5 109.5q199 0 323 -105t124 -272q0 -163 -130 -276t-319 -113t-308.5 105.5t-119.5 271.5zM1651 346q0 -36 20.5 -60t52.5 -24q34 0 60 32t26 73q0 36 -20 60t-51 24q-35 0 -61.5 -31t-26.5 -74z" />
<glyph unicode="&#x26;" horiz-adv-x="1779" d="M133 408q0 98 42.5 177t121.5 128q41 27 84.5 42t126.5 33q-56 69 -79 126t-23 124q0 172 146 280.5t378 108.5q206 0 340 -90q75 -50 119.5 -129t44.5 -164q0 -230 -320 -354l105 -125q72 53 112.5 92t116.5 131l258 -337l-227 -154l295 -297h-600l-72 86 q-248 -121 -459 -121q-144 0 -261 57.5t-183 159t-66 226.5zM614 422q0 -37 34 -60.5t87 -23.5q50 0 119 29l-139 159q-101 -30 -101 -104zM858 1030q0 -40 47 -108q105 49 105 118q0 32 -20.5 54t-49.5 22q-35 0 -58.5 -24.5t-23.5 -61.5z" />
<glyph unicode="'" horiz-adv-x="444" d="M223 803l19 563h297l-121 -563h-195z" />
<glyph unicode="(" horiz-adv-x="876" d="M166 332q0 389 129 719q46 118 109 233.5t188 310.5l346 -237q-187 -297 -264.5 -540t-77.5 -529q0 -180 26.5 -327t86.5 -308l-392 -143q-84 248 -117.5 430.5t-33.5 390.5z" />
<glyph unicode=")" horiz-adv-x="876" d="M74 -252q186 296 264 539.5t78 527.5q0 182 -26.5 329t-86.5 308l391 143q84 -246 118 -429.5t34 -389.5q0 -391 -129 -721q-43 -114 -104.5 -226.5t-190.5 -317.5z" />
<glyph unicode="*" d="M471 1180l104 221l195 -113l8 225l244 -28l-49 -221l217 61l47 -240l-225 -22l129 -189l-215 -118l-92 207l-140 -179l-180 168l170 150z" />
<glyph unicode="+" d="M281 545v301h362v348h301v-348h361v-301h-361v-346h-301v346h-362z" />
<glyph unicode="," horiz-adv-x="704" d="M-59 -328l270 703h479l-383 -703h-366z" />
<glyph unicode="-" horiz-adv-x="561" d="M35 285l51 409h561l-51 -409h-561z" />
<glyph unicode="." horiz-adv-x="727" d="M119 190q0 98 82 170t194 72q109 0 185.5 -67t76.5 -162t-81 -162.5t-195 -67.5q-112 0 -187 62.5t-75 154.5z" />
<glyph unicode="/" horiz-adv-x="956" d="M-156 -395l1004 1888h354l-1003 -1888h-355z" />
<glyph unicode="0" d="M145 635q0 162 51 304t140 243.5t214 160t267 58.5q140 0 261 -51t206 -140.5t133.5 -216.5t48.5 -274q0 -137 -49.5 -277.5t-132.5 -240.5q-94 -112 -227 -174t-281 -62q-121 0 -234 43t-196 121q-201 189 -201 506zM635 610q0 -109 37 -172t100 -63q82 0 142.5 113.5 t60.5 267.5q0 106 -37.5 167.5t-101.5 61.5q-52 0 -98.5 -52t-74.5 -138.5t-28 -184.5z" />
<glyph unicode="1" d="M446 944l52 422h727l-168 -1366h-504l115 944h-222z" />
<glyph unicode="2" d="M66 0l6 45l657 567q95 83 137.5 146.5t42.5 122.5q0 51 -31 83.5t-79 32.5q-126 0 -135 -184h-498q19 130 51 209.5t98 157.5q188 221 506 221q127 0 235.5 -36t185 -100t120 -154.5t43.5 -195.5q0 -121 -59.5 -221t-182.5 -186q-127 -93 -270 -137l8 -23q67 25 121 33 t149 8h185l-47 -389h-1243z" />
<glyph unicode="3" d="M141 473h504q-2 -12 -2 -33q0 -57 36 -93t93 -36q61 0 104.5 41.5t43.5 98.5q0 54 -37.5 89t-94.5 35q-11 0 -47 -4l35 279q27 -6 39 -6q52 0 85.5 30.5t33.5 77.5q0 44 -28.5 74.5t-71.5 30.5t-70.5 -29t-34.5 -84h-475q17 102 49.5 169.5t93.5 125.5q82 78 200 120 t257 42q243 0 401 -116t158 -294q0 -106 -65.5 -180.5t-169.5 -89.5v-21q103 -19 163 -96.5t60 -191.5q0 -86 -41.5 -170t-110.5 -140q-172 -137 -463 -137q-328 0 -510 185q-61 63 -91 135t-44 188z" />
<glyph unicode="4" d="M94 260l45 373l639 733h588l-90 -733h188l-45 -373h-188l-33 -260h-457l33 260h-680zM571 606l9 -14q43 25 75.5 33t92.5 8h83l15 117q12 108 82 270h-21q-39 -79 -116 -178l-95 -119q-34 -43 -125 -117z" />
<glyph unicode="5" d="M160 70l106 379q119 -56 213 -79.5t199 -23.5q108 0 169.5 32.5t61.5 90.5q0 121 -235 121q-178 0 -391 -78l235 854h918l-47 -383h-562l-36 -129q103 25 180 25q190 0 314 -113t124 -285q0 -151 -89.5 -268.5t-252 -182.5t-371.5 -65q-248 0 -536 105z" />
<glyph unicode="6" d="M125 526q0 157 73.5 291.5t237.5 274.5l320 274h694l-381 -301q-59 -48 -80.5 -61t-70.5 -33l6 -27q47 17 90 17q169 0 281 -122.5t112 -308.5q0 -161 -84 -290t-232.5 -202t-332.5 -73q-182 0 -326.5 71.5t-225.5 199.5t-81 290zM604 506q0 -69 44 -113.5t110 -44.5 q71 0 120.5 50t49.5 122q0 73 -42 118.5t-110 45.5q-72 0 -122 -52t-50 -126z" />
<glyph unicode="7" d="M158 0l532 762q59 85 97 128t85 79l-8 16q-40 -12 -58 -14t-89 -2h-441l50 397h1304l-907 -1366h-565z" />
<glyph unicode="8" d="M154 422q0 83 37.5 152t105.5 112q35 21 69 31t93 16l2 15q-191 56 -191 245q0 115 73.5 208.5t203 146.5t289.5 53q164 0 300 -54.5t213.5 -149.5t77.5 -210q0 -133 -96 -217q-33 -30 -69 -46.5t-101 -31.5v-16q55 -12 86 -26t60 -38q42 -37 66 -91t24 -115 q0 -75 -38.5 -155t-101.5 -134q-175 -152 -469 -152q-176 0 -321.5 60t-229 165t-83.5 232zM635 438q0 -58 42.5 -100.5t100.5 -42.5q57 0 98.5 40.5t41.5 96.5q0 62 -40 104t-98 42q-61 0 -103 -40.5t-42 -99.5zM735 954q0 -46 32.5 -78t78.5 -32t79 32t33 76 q0 49 -32.5 82t-79.5 33q-46 0 -78.5 -33t-32.5 -80z" />
<glyph unicode="9" d="M178 0l307 248q137 111 220 141l-11 23q-74 -15 -102 -15q-173 0 -291.5 126t-118.5 311q0 163 85.5 292.5t238 202t342.5 72.5q265 0 438 -154q184 -161 184 -405q0 -169 -88 -320q-56 -96 -194 -219l-340 -303h-670zM664 829q0 -70 43 -117.5t108 -47.5q72 0 126 55 t54 129q0 72 -43.5 118t-113.5 46q-72 0 -123 -53.5t-51 -129.5z" />
<glyph unicode=":" horiz-adv-x="727" d="M119 190q0 98 82 170t194 72q109 0 185.5 -67t76.5 -162t-81 -162.5t-195 -67.5q-112 0 -187 62.5t-75 154.5zM186 741q0 98 82.5 170t194.5 72q109 0 185.5 -67t76.5 -162t-81 -162.5t-195 -67.5q-112 0 -187.5 62.5t-75.5 154.5z" />
<glyph unicode=";" horiz-adv-x="704" d="M-59 -328l270 703h479l-383 -703h-366zM244 741q0 98 82 170t196 72q109 0 185.5 -67t76.5 -162t-81 -162.5t-195 -67.5q-112 0 -188 62.5t-76 154.5z" />
<glyph unicode="&#x3c;" horiz-adv-x="1024" d="M94 522v344l887 500v-412l-451 -262l451 -262v-407z" />
<glyph unicode="=" d="M281 389v232h1024v-232h-1024zM281 772v232h1024v-232h-1024z" />
<glyph unicode="&#x3e;" horiz-adv-x="1024" d="M92 23v409l451 262l-451 264v408l887 -502v-342z" />
<glyph unicode="?" horiz-adv-x="1275" d="M207 1010q9 99 35.5 168.5t79.5 132.5q76 92 192.5 142t253.5 50q238 0 395.5 -137t157.5 -344q0 -218 -164.5 -355t-427.5 -137q-55 0 -178 15l43 358q63 -16 102 -16q74 0 121 41.5t47 107.5q0 43 -25 71t-65 28q-46 0 -71 -32.5t-25 -92.5h-471zM397 201q0 97 81 165 t196 68q109 0 186.5 -69.5t77.5 -167.5q0 -92 -80 -158t-192 -66t-190.5 67t-78.5 161z" />
<glyph unicode="@" horiz-adv-x="1501" d="M184 672q0 140 54 266.5t146 217.5t220 144.5t270 53.5q168 0 312 -76.5t228.5 -208t84.5 -285.5q0 -112 -49.5 -211t-138.5 -165q-59 -43 -128 -69t-126 -26q-97 0 -148 70q-81 -49 -120 -63.5t-89 -14.5q-115 0 -190.5 81t-75.5 204q0 107 56.5 207.5t149 162.5 t191.5 62q120 0 199 -82l19 49h215l-156 -485l-8 -29q-8 -16 -8 -31q0 -12 11 -22t25 -10q28 0 74 31.5t80 72.5q40 53 64 122t24 134q0 93 -40 178t-106.5 147t-158.5 99t-191 37q-152 0 -278.5 -73.5t-199 -202t-72.5 -283.5q0 -156 74.5 -286.5t203.5 -206t283 -75.5 q105 0 190 35.5t180 118.5l84 -94q-111 -96 -221.5 -140t-240.5 -44q-141 0 -269.5 54.5t-221 146.5t-147.5 220t-55 269zM670 510q0 -47 19.5 -75.5t53.5 -28.5q51 0 90 46t74 146l45 129q21 58 21 98q0 35 -20.5 59.5t-49.5 24.5q-44 0 -88 -39t-76 -108q-29 -64 -49 -137 t-20 -115z" />
<glyph unicode="A" horiz-adv-x="1449" d="M0 0l631 1378h565l254 -1378h-506l-10 182h-336l-66 -182h-532zM713 496h188l-20 245q-4 58 -4 97q0 40 6 110h-17q-23 -107 -61 -207z" />
<glyph unicode="B" horiz-adv-x="1394" d="M137 0l168 1366h615q205 0 313 -78q66 -47 101.5 -121.5t35.5 -162.5q0 -132 -78 -222q-31 -35 -62 -52.5t-87 -31.5l2 -12q51 -10 78 -23.5t55 -41.5q90 -90 90 -228q0 -170 -132 -281.5t-333 -111.5h-766zM651 319h33q67 0 100 7t60 26q47 30 47 92q0 50 -31 72.5 t-98 22.5h-84zM717 854h43q76 0 108 18q45 27 45 82q0 37 -27.5 57.5t-76.5 20.5h-70z" />
<glyph unicode="C" horiz-adv-x="1191" d="M154 643q0 214 97.5 387.5t270 272t385.5 98.5q178 0 355 -64l-41 -487q-129 106 -273 106q-121 0 -211 -89.5t-90 -209.5q0 -107 74.5 -178t187.5 -71q149 0 271 116l-60 -497q-180 -62 -311 -62q-116 0 -227 40t-199 112q-229 191 -229 526z" />
<glyph unicode="D" horiz-adv-x="1523" d="M137 0l168 1366h463q367 0 565 -174q97 -86 150 -213.5t53 -273.5q0 -163 -65 -303.5t-185 -235.5q-113 -90 -251 -128t-351 -38h-547zM682 406h70q123 0 209 90.5t86 222.5q0 106 -67.5 176t-168.5 70h-59z" />
<glyph unicode="E" horiz-adv-x="1124" d="M137 0l168 1366h899l-45 -354h-401l-19 -152h369l-43 -338h-369l-18 -155h418l-45 -367h-914z" />
<glyph unicode="F" horiz-adv-x="1071" d="M137 0l168 1366h873l-45 -365h-377l-19 -149h353l-46 -360h-352l-59 -492h-496z" />
<glyph unicode="G" horiz-adv-x="1654" d="M156 651q0 215 101.5 386.5t282.5 267.5t410 96q297 0 496 -154q49 -38 86 -78.5t88 -113.5l-467 -183q-53 65 -96.5 90t-104.5 25q-128 0 -215.5 -105t-87.5 -259q0 -123 72.5 -201t187.5 -78q154 0 219 139h-251l36 314h750q2 -33 2 -74q0 -341 -208 -549.5 t-548 -208.5q-161 0 -306 53.5t-249 151.5q-198 183 -198 481z" />
<glyph unicode="H" horiz-adv-x="1556" d="M137 0l168 1366h496l-58 -467h293l58 467h495l-168 -1366h-495l59 496h-291l-61 -496h-496z" />
<glyph unicode="I" horiz-adv-x="776" d="M137 0l168 1366h502l-168 -1366h-502z" />
<glyph unicode="J" horiz-adv-x="933" d="M-12 72l159 442q57 -123 138 -123q37 0 52.5 25.5t24.5 97.5l105 852h496l-117 -954q-15 -129 -44.5 -197.5t-92.5 -124.5q-69 -60 -163 -92.5t-194 -32.5q-178 0 -364 107z" />
<glyph unicode="K" horiz-adv-x="1499" d="M137 0l168 1366h496l-43 -352q-11 -98 -43 -240l12 -4q31 76 53.5 119t79.5 133l217 344h578l-531 -692l349 -674h-525l-174 393q-49 110 -67 201l-17 -2q2 -18 2 -41q0 -63 -10 -158l-49 -393h-496z" />
<glyph unicode="L" horiz-adv-x="1085" d="M137 0l168 1366h502l-117 -954l420 12l-51 -424h-922z" />
<glyph unicode="M" horiz-adv-x="1941" d="M82 0l397 1366h525l53 -426q10 -85 10 -152q0 -78 -12 -149h20q37 186 121 391l137 336h522l5 -1366h-482l27 403q15 214 47 381l-18 2q-33 -137 -50.5 -191.5t-70.5 -180.5l-174 -414h-312l-53 432q-16 152 -16 252q0 53 4 102h-17q-21 -179 -61 -354l-100 -432h-502z " />
<glyph unicode="N" horiz-adv-x="1662" d="M137 0l168 1366h498l244 -514q42 -91 98 -285h18q-12 138 -12 236q0 99 6 160l35 403h504l-168 -1366h-481l-238 471q-43 86 -66 148t-49 155l-18 -2q8 -76 8 -164q0 -75 -4 -137l-45 -471h-498z" />
<glyph unicode="O" horiz-adv-x="1654" d="M156 664q0 152 58.5 288.5t159 235t239.5 156t294 57.5q307 0 533 -189q225 -188 225 -524q0 -151 -58 -285t-157 -230t-237.5 -152t-294.5 -56q-155 0 -304.5 57.5t-255.5 157.5q-202 196 -202 484zM653 659q0 -114 69 -189t173 -75q115 0 193.5 82.5t78.5 202.5 q0 115 -69 191.5t-172 76.5q-112 0 -192.5 -85t-80.5 -204z" />
<glyph unicode="P" horiz-adv-x="1361" d="M137 0l168 1366h569q139 0 231 -24t163 -78q81 -64 126.5 -160.5t45.5 -204.5q0 -98 -38 -190t-106 -158q-74 -71 -173 -103t-249 -32h-190l-51 -416h-496zM725 756h47q186 0 186 145q0 65 -47 92q-19 11 -37.5 14t-66.5 3h-51z" />
<glyph unicode="Q" horiz-adv-x="1660" d="M158 664q0 347 260 561q215 176 506 176q308 0 526 -191q118 -102 172.5 -229t54.5 -295q0 -154 -43 -252t-155 -201l178 -268l-416 -133l-90 186q-77 -30 -134.5 -41.5t-133.5 -11.5q-264 0 -467 158q-258 199 -258 541zM655 637q0 -114 70.5 -191t173.5 -77q23 0 64 6 l-142 190l348 35q11 68 11 92q0 103 -75 179.5t-175 76.5q-114 0 -194.5 -91.5t-80.5 -219.5z" />
<glyph unicode="R" horiz-adv-x="1435" d="M137 0l168 1366h545q165 0 259 -24t169 -87q74 -62 117 -153t43 -187q0 -89 -36.5 -168t-101.5 -133q-43 -35 -85.5 -51.5t-116.5 -27.5l297 -535h-537l-123 330q-38 109 -51 182l-16 -2q4 -47 4 -100q0 -93 -10 -181l-29 -229h-496zM725 754h43q85 0 134.5 37t49.5 100 q0 56 -38 82t-119 26h-39z" />
<glyph unicode="S" horiz-adv-x="1243" d="M90 129l184 369q61 -75 153 -118.5t189 -43.5q51 0 82 22.5t31 57.5t-30.5 58t-96.5 38q-126 27 -196 61q-95 47 -145 133t-50 203q0 135 75 248t204 178.5t282 65.5q127 0 245 -33t265 -108l-182 -365q-136 123 -299 123q-40 0 -67 -20.5t-27 -51.5t29 -48.5t118 -39.5 q142 -35 223 -88q68 -46 109 -130t41 -177q0 -135 -80 -249.5t-217.5 -181.5t-298.5 -67q-128 0 -255 38.5t-286 125.5z" />
<glyph unicode="T" horiz-adv-x="983" d="M129 936l53 430h955l-52 -430l-219 14l-116 -950h-502l117 950z" />
<glyph unicode="U" horiz-adv-x="1552" d="M201 469q0 59 6 111l96 786h502l-92 -756q-8 -78 -8 -100q0 -62 31 -95.5t91 -33.5q71 0 108 49.5t50 161.5l94 774h504l-94 -756q-26 -213 -63.5 -307.5t-127.5 -177.5q-177 -160 -460 -160q-297 0 -484 148q-153 124 -153 356z" />
<glyph unicode="V" horiz-adv-x="1421" d="M168 1366h518l55 -430q13 -117 13 -203q0 -65 -9 -182l19 -2q27 237 106 432l158 385h561l-684 -1366h-430z" />
<glyph unicode="W" horiz-adv-x="2129" d="M168 1366h512l45 -530q8 -118 8 -181q0 -59 -4 -108h21q14 108 32.5 183t61.5 192l164 444h407l58 -520q14 -137 14 -246v-55h18q17 142 32 210.5t52 176.5l148 434h561l-656 -1366h-417l-62 440q-16 122 -16 226q0 32 2 57l-19 2q-24 -113 -39 -162t-67 -188l-139 -375 h-443z" />
<glyph unicode="X" horiz-adv-x="1515" d="M0 0l569 731l-370 635h559l65 -172q37 -98 41 -137l13 -2q16 53 65 149l84 162h598l-518 -655l410 -711h-535l-104 223q-37 76 -56 156h-16q-15 -46 -26.5 -69.5t-47.5 -86.5l-131 -223h-600z" />
<glyph unicode="Y" horiz-adv-x="1400" d="M154 1366h542l70 -223q21 -68 27 -154l18 -2q9 48 49 129l125 250h598l-575 -784l-72 -582h-492l74 592z" />
<glyph unicode="Z" horiz-adv-x="1296" d="M27 0l14 123l479 672q55 76 84.5 108t63.5 53l-9 15q-78 -23 -178 -25l-313 -10l53 430h1192l-14 -121l-508 -713q-50 -69 -73 -94.5t-58 -50.5l8 -16q52 16 81 20.5t99 5.5l371 9l-49 -406h-1243z" />
<glyph unicode="[" horiz-adv-x="880" d="M102 -395l232 1888h676l-21 -170h-266l-191 -1548h267l-21 -170h-676z" />
<glyph unicode="\" horiz-adv-x="956" d="M135 1493h328l538 -1888h-325z" />
<glyph unicode="]" horiz-adv-x="880" d="M6 -395l21 170h266l190 1548h-266l21 170h675l-231 -1888h-676z" />
<glyph unicode="^" horiz-adv-x="935" d="M-12 682l276 694h457l276 -694h-358l-145 416l-146 -416h-360z" />
<glyph unicode="_" horiz-adv-x="1024" d="M25 -94h1024v-240h-1024v240z" />
<glyph unicode="`" horiz-adv-x="1024" d="M408 1335l221 170l196 -270l-163 -143z" />
<glyph unicode="a" horiz-adv-x="1335" d="M109 422q0 149 66 280.5t176.5 210t236.5 78.5q143 0 223 -86q33 -38 66 -121l14 7q-10 87 -10 165h471l-117 -956h-471q16 70 53 170l-16 6q-60 -107 -129.5 -155t-163.5 -48q-161 0 -280 134t-119 315zM586 457q0 -52 33 -86.5t83 -34.5q57 0 96.5 43t39.5 106 q0 57 -31.5 93t-81.5 36q-57 0 -98 -46.5t-41 -110.5z" />
<glyph unicode="b" horiz-adv-x="1308" d="M98 0l185 1493h473l-58 -467q-15 -123 -57 -229l12 -9q89 203 281 203q161 0 270 -137.5t109 -341.5q0 -148 -61 -272t-166 -195.5t-230 -71.5q-196 0 -295 193l-14 -4q10 -64 10 -162h-459zM606 469q0 -57 33 -95t82 -38q52 0 87.5 42.5t35.5 104.5q0 61 -30.5 98 t-80.5 37q-54 0 -90.5 -43t-36.5 -106z" />
<glyph unicode="c" horiz-adv-x="894" d="M113 451q0 249 155 404t404 155q68 0 127 -11.5t157 -42.5l-59 -401q-70 84 -166 84q-67 0 -108 -45t-41 -119q0 -64 37 -101.5t100 -37.5q84 0 160 67l-70 -393q-125 -37 -215 -37q-187 0 -326 117q-155 132 -155 361z" />
<glyph unicode="d" horiz-adv-x="1316" d="M111 426q0 153 61 283t165.5 206t227.5 76q217 0 287 -211l16 4q-6 56 -6 82q0 79 15 197l53 430h473l-184 -1493h-474q17 70 48 160l-17 8q-88 -195 -287 -195q-164 0 -271 129t-107 324zM580 473q0 -52 34.5 -89.5t81.5 -37.5q53 0 89 44t36 108q0 59 -30 93t-82 34 q-54 0 -91.5 -44t-37.5 -108z" />
<glyph unicode="e" horiz-adv-x="1265" d="M115 469q0 152 77 276.5t212.5 195.5t302.5 71q155 0 284 -66t203 -181t74 -253q0 -41 -8 -98h-678q-2 -12 -2 -35q0 -59 28.5 -94t75.5 -35q37 0 61 19.5t41 62.5h457q-28 -77 -57.5 -123.5t-77.5 -89.5q-169 -146 -420 -146q-254 0 -413.5 138t-159.5 358zM600 610h221 q-2 65 -27 96t-77 31q-50 0 -78.5 -30.5t-38.5 -96.5z" />
<glyph unicode="f" horiz-adv-x="739" d="M88 590l45 375l119 -21l27 219q22 177 129.5 272t285.5 95q87 0 203 -29l-47 -383q-20 10 -37 10q-34 0 -51 -22.5t-25 -73.5l-12 -88l119 12l-45 -366l-115 12l-74 -602h-475l74 602z" />
<glyph unicode="g" horiz-adv-x="1318" d="M82 -356l127 311q90 -55 161 -78.5t146 -23.5q76 0 137 31t90 85q28 52 58 201l-15 4q-23 -51 -39.5 -76t-41.5 -45q-72 -59 -197 -59q-169 0 -282 130t-113 325q0 149 62 273.5t170.5 196.5t238.5 72q107 0 175.5 -47.5t106.5 -148.5l15 4q-1 11 -2 24.5t-1.5 20.5 t-0.5 10l-5 70v32h465l-104 -858q-20 -165 -64.5 -260t-134.5 -166q-85 -66 -202.5 -101.5t-251.5 -35.5q-238 0 -498 109zM582 463q0 -57 32.5 -93t83.5 -36q57 0 95 40.5t38 100.5t-31.5 98.5t-80.5 38.5q-57 0 -97 -43.5t-40 -105.5z" />
<glyph unicode="h" horiz-adv-x="1294" d="M98 0l185 1493h473l-54 -432q-20 -160 -51 -256l19 -6q109 192 305 192q127 0 213 -88t86 -219q0 -35 -8 -109l-70 -575h-475l57 463q6 49 6 65q0 70 -61 70q-42 0 -70 -35q-12 -18 -16 -37t-12 -80l-54 -446h-473z" />
<glyph unicode="i" horiz-adv-x="679" d="M106 0l117 956h473l-116 -956h-474zM231 1292q0 97 81.5 167.5t191.5 70.5q107 0 185.5 -68t78.5 -162q0 -92 -81 -158.5t-193 -66.5q-110 0 -186.5 63t-76.5 154z" />
<glyph unicode="j" horiz-adv-x="681" d="M59 -395l166 1351h473l-166 -1351h-473zM231 1292q0 97 81.5 167.5t191.5 70.5q107 0 185.5 -68t78.5 -162q0 -92 -81 -158.5t-193 -66.5q-110 0 -186.5 63t-76.5 154z" />
<glyph unicode="k" horiz-adv-x="1331" d="M98 0l185 1493h473l-70 -569q-13 -117 -59 -359l14 -2q23 56 45.5 96t79.5 125l117 172h563l-412 -493l275 -463h-525l-86 188q-63 141 -82 232h-18q6 -88 6 -119q0 -53 -4 -80l-29 -221h-473z" />
<glyph unicode="l" horiz-adv-x="669" d="M98 0l185 1493h473l-185 -1493h-473z" />
<glyph unicode="m" horiz-adv-x="1849" d="M98 0l117 956h461q-12 -62 -43 -157l22 -4q61 107 130.5 151.5t172.5 44.5q216 0 246 -200h17q38 98 113.5 149t181.5 51q141 0 227 -85t86 -224q0 -50 -10 -135l-68 -547h-461l60 483q6 49 6 64q0 28 -16.5 47.5t-39.5 19.5q-20 0 -38 -13t-29 -34q-11 -26 -21 -114 l-57 -453h-461l58 471q8 65 8 78q0 28 -15 45.5t-38 17.5q-42 0 -66 -39q-16 -27 -25 -108l-57 -465h-461z" />
<glyph unicode="n" horiz-adv-x="1296" d="M98 0l117 956h475q-18 -97 -47 -168l16 -6q72 114 141 161.5t161 47.5q135 0 224 -88.5t89 -222.5q0 -60 -10 -145l-66 -535h-475l57 463q6 47 6 65q0 70 -61 70q-42 0 -70 -35q-12 -18 -16 -36.5t-12 -80.5l-56 -446h-473z" />
<glyph unicode="o" horiz-adv-x="1304" d="M117 485q0 148 77 268t213 188.5t304 68.5q126 0 238 -36t196 -102q80 -65 123 -162t43 -214q0 -145 -78 -265t-215 -189t-303 -69q-258 0 -428 145.5t-170 366.5zM586 481q0 -57 35 -95t88 -38q56 0 94.5 43.5t38.5 106.5q0 60 -33.5 98.5t-85.5 38.5q-57 0 -97 -45 t-40 -109z" />
<glyph unicode="p" horiz-adv-x="1310" d="M49 -395l166 1351h473q-8 -53 -37 -145l19 -8q42 77 69 104q78 84 199 84q103 0 190 -63.5t138 -173.5t51 -240q0 -142 -60 -267t-161 -199.5t-217 -74.5q-115 0 -209 64q-34 25 -53.5 53.5t-36.5 79.5l-19 -6q8 -76 8 -117q0 -67 -12 -158l-35 -284h-473zM612 461 q0 -56 31 -90.5t80 -34.5q54 0 89.5 42t35.5 105q0 60 -30.5 97.5t-78.5 37.5q-52 0 -89.5 -46t-37.5 -111z" />
<glyph unicode="q" horiz-adv-x="1304" d="M109 430q0 148 62 277.5t167 206.5t225 77q204 0 281 -203l20 7q-20 72 -22 161h481l-166 -1351l-475 -15l43 340q19 142 66 244l-19 8q-43 -101 -118 -155t-173 -54q-160 0 -266 131t-106 326zM578 475q0 -55 31.5 -92t78.5 -37q52 0 89.5 43t37.5 103q0 59 -29.5 94 t-78.5 35q-55 0 -92 -42t-37 -104z" />
<glyph unicode="r" horiz-adv-x="880" d="M98 0l117 956h479q-15 -78 -53 -168l21 -10q37 66 59 97t51 57q30 27 73.5 44t82.5 17q14 0 59 -10l-57 -471q-64 35 -111 35q-43 0 -84.5 -23.5t-70.5 -64.5q-40 -51 -54 -178l-35 -281h-477z" />
<glyph unicode="s" horiz-adv-x="974" d="M57 84l117 289q153 -101 281 -101q34 0 54.5 14.5t20.5 39.5q0 26 -23.5 41.5t-82.5 29.5q-128 30 -195 85.5t-67 164.5q0 156 127.5 259.5t320.5 103.5q186 0 408 -86l-117 -289q-107 80 -221 80q-82 0 -82 -51q0 -29 19.5 -39t123.5 -33q106 -25 168 -94.5t62 -167.5 q0 -157 -132.5 -257t-338.5 -100q-104 0 -195.5 23t-247.5 88z" />
<glyph unicode="t" horiz-adv-x="722" d="M88 590l45 375l119 -21l41 336h475l-43 -336l119 10l-45 -364l-115 12l-74 -602h-475l76 602z" />
<glyph unicode="u" horiz-adv-x="1296" d="M152 381q0 33 8 111l55 464h475l-57 -464q-8 -78 -8 -84q0 -31 20 -51.5t49 -20.5q19 0 38 10t28 25q12 22 22 102l60 483h475l-66 -526q-17 -134 -50.5 -207t-106.5 -131q-146 -119 -392 -119q-118 0 -215.5 23t-173.5 70.5t-118.5 127.5t-42.5 187z" />
<glyph unicode="v" horiz-adv-x="1157" d="M96 956h475l21 -282q4 -66 4 -103q0 -3 -4 -135h18q16 132 62 266l90 254h532l-555 -956h-399z" />
<glyph unicode="w" horiz-adv-x="1691" d="M96 956h479l25 -243q6 -62 6 -117q0 -36 -6 -156l18 -4q13 72 22 106t36 115l96 299h338l39 -276q15 -104 18 -238h19q4 70 13 118t34 136l72 260h524l-506 -956h-387l-21 174q-18 169 -18 232q0 38 2 69l-16 4q-44 -164 -76 -246l-94 -233h-383z" />
<glyph unicode="x" horiz-adv-x="1296" d="M-4 0l444 504l-317 452h539l32 -100q15 -45 19 -88h18q7 30 37 88l55 100h578l-432 -479l331 -477h-522l-41 88q-29 58 -35 121l-14 2q-11 -34 -51 -98l-72 -113h-569z" />
<glyph unicode="y" horiz-adv-x="1185" d="M96 -395l156 272q42 76 66.5 112.5t66.5 86.5l-289 880h488l41 -266q16 -107 16 -153q0 -25 -6 -99l20 -2q26 144 70 269l88 251h510l-719 -1351h-508z" />
<glyph unicode="z" horiz-adv-x="1054" d="M43 0l16 129l277 367q39 52 60.5 73t56.5 45l-11 17q-57 -29 -131 -29h-172l45 354h942l-10 -94l-293 -385q-64 -82 -114 -115l8 -24q26 15 49.5 19.5t67.5 4.5h221l-45 -362h-967z" />
<glyph unicode="{" horiz-adv-x="854" d="M164 446l26 226q68 14 96.5 45t37.5 110l45 379q19 161 99 228t251 67q82 0 258 -4l-29 -235q-18 2 -43 2q-93 0 -127 -17q-25 -13 -33.5 -34.5t-17.5 -90.5l-39 -313q-13 -107 -45 -160.5t-108 -99.5q54 -38 74 -78t20 -109q0 -31 -4 -71l-41 -338q-4 -32 -4 -43 q0 -43 31 -58.5t120 -15.5h41l-29 -233q-33 -2 -67 -2l-66 -2q-13 0 -39.5 -1t-42.5 -1q-100 0 -148.5 7.5t-86.5 28.5q-90 53 -90 189q0 28 6 72l45 376q4 28 4 60q0 51 -22.5 79t-71.5 37z" />
<glyph unicode="|" horiz-adv-x="1024" d="M328 -342v1708h415v-1708h-415z" />
<glyph unicode="}" horiz-adv-x="854" d="M12 -397l29 233h43q108 0 137 23t41 118l39 314q13 107 45.5 160t108.5 98q-54 40 -74.5 79.5t-20.5 106.5q0 17 5 74l38 313q7 52 7 68q0 43 -31.5 58.5t-120.5 15.5q-25 0 -41 -2l29 235l133 4q15 0 42.5 1t39.5 1q99 0 148 -7.5t87 -29.5q47 -28 68.5 -72.5 t21.5 -115.5q0 -28 -6 -72l-45 -379q-4 -28 -4 -57q0 -52 22 -80t72 -39l-28 -225q-64 -13 -93 -45t-38 -111l-45 -376q-20 -161 -100 -228t-251 -67q-36 0 -258 4z" />
<glyph unicode="~" horiz-adv-x="1366" d="M209 1255q63 165 141 240.5t185 75.5q39 0 84.5 -13.5t209.5 -74.5q40 -15 66 -15q32 0 57.5 23.5t57.5 83.5l196 -166q-38 -93 -65.5 -140.5t-67.5 -90.5q-82 -82 -192 -82q-37 0 -80 12t-148 51q-104 39 -135 39q-32 0 -56.5 -24t-55.5 -84z" />
<glyph unicode="&#xa2;" d="M381 674q0 132 53.5 245.5t147.5 184.5q67 51 153.5 81t161.5 27l51 -2l10 82h123l-12 -92q59 -9 148 -39l-60 -395q-70 82 -160 82q-66 0 -109.5 -43t-43.5 -109q0 -57 40.5 -94t102.5 -37q83 0 164 70l-70 -391q-54 -21 -133 -35l-12 -92h-131l12 92q-80 6 -136.5 25.5 t-111.5 60.5q-188 135 -188 379z" />
<glyph unicode="&#xa3;" d="M106 268q137 67 269 113q57 88 88 170h-166l31 258h157q-22 129 -22 203q0 196 132 313t353 117q217 0 334 -135q37 -45 57 -94.5t33 -133.5l-338 -112q-8 71 -34.5 109t-69.5 38q-38 0 -64 -27t-26 -65q0 -46 30 -213h291l-31 -258h-278q-24 -67 -36 -96.5t-44 -92.5 q97 -41 129.5 -51t73.5 -10q68 0 162 47l172 -227q-201 -156 -342 -156q-51 0 -103 11.5t-147 43.5q-129 46 -189 46q-99 0 -249 -91z" />
<glyph unicode="&#xa5;" d="M72 285l26 221h404l10 86l-49 102h-340l27 221h208l-211 451h543l70 -223q20 -68 26 -156h19q15 63 49 129l125 250h598l-330 -451h217l-26 -221h-353l-84 -114l-8 -74h420l-27 -221h-421l-35 -285h-492l35 285h-401z" />
<glyph unicode="&#xa8;" horiz-adv-x="1024" d="M287 1282q0 72 52 123t126 51q69 0 120.5 -52t51.5 -122q0 -72 -52 -124t-124 -52t-123 52t-51 124zM754 1282q0 72 52 123t126 51q69 0 120.5 -52t51.5 -122q0 -72 -52 -124t-124 -52t-123 52t-51 124z" />
<glyph unicode="&#xa9;" horiz-adv-x="1501" d="M125 682q0 196 95.5 360.5t261.5 259.5t364 95q187 0 348 -96.5t255.5 -261.5t94.5 -357q0 -145 -56 -277t-151 -227.5t-226 -152t-275 -56.5t-275.5 57t-227 152.5t-152 227.5t-56.5 276zM281 682q0 -154 74.5 -285.5t202.5 -208.5t278 -77t277.5 76.5t201.5 208 t74 286.5q0 154 -74 286t-199.5 209.5t-271.5 77.5q-155 0 -284.5 -75.5t-204 -207.5t-74.5 -290zM424 662q0 193 136.5 321.5t342.5 128.5q112 0 234 -41l-27 -317q-60 44 -96 58.5t-86 14.5q-69 0 -119.5 -46t-50.5 -109q0 -57 43.5 -95t109.5 -38q74 0 133 43l50 41 l-41 -330q-75 -23 -116.5 -31t-90.5 -8q-182 0 -302 116.5t-120 291.5z" />
<glyph unicode="&#xab;" horiz-adv-x="1103" d="M129 496l389 477l166 -146l-287 -331l215 -318l-192 -127zM553 496l393 477l174 -146l-291 -331l211 -318l-196 -127z" />
<glyph unicode="&#xad;" horiz-adv-x="561" d="M35 285l51 409h561l-51 -409h-561z" />
<glyph unicode="&#xae;" horiz-adv-x="1501" d="M125 682q0 196 95.5 360.5t261.5 259.5t364 95q187 0 348 -96.5t255.5 -261.5t94.5 -357q0 -145 -56 -277t-151 -227.5t-226 -152t-275 -56.5t-275.5 57t-227 152.5t-152 227.5t-56.5 276zM281 682q0 -154 74.5 -285.5t202.5 -208.5t278 -77t277.5 76.5t201.5 208 t74 286.5q0 154 -74 286t-199.5 209.5t-271.5 77.5q-155 0 -284.5 -75.5t-204 -207.5t-74.5 -290zM446 328l97 778h334q98 0 155 -14.5t105 -49.5q47 -35 73.5 -87.5t26.5 -108.5q0 -85 -52 -145.5t-138 -75.5l180 -297h-350l-91 225q0 -40 -4 -86l-18 -139h-318zM817 758 h12q51 0 80 18.5t29 50.5q0 60 -94 60h-10z" />
<glyph unicode="&#xb4;" horiz-adv-x="1024" d="M541 1235l258 270l207 -168l-299 -245z" />
<glyph unicode="&#xb8;" horiz-adv-x="1024" d="M371 -367l235 279l174 -160l-245 -262z" />
<glyph unicode="&#xbb;" horiz-adv-x="1103" d="M111 197l288 331l-209 318l197 127l291 -445l-393 -477zM547 197l287 331l-216 318l193 127l291 -445l-389 -477z" />
<glyph unicode="&#xc4;" horiz-adv-x="1449" d="M0 0l631 1378h565l254 -1378h-506l-10 182h-336l-66 -182h-532zM496 1677q0 72 52 123t126 51q69 0 120.5 -52t51.5 -122q0 -72 -52 -124t-124 -52t-123 52t-51 124zM713 496h188l-20 245q-4 58 -4 97q0 40 6 110h-17q-23 -107 -61 -207zM1020 1677q0 72 52 123t126 51 q69 0 120.5 -52t51.5 -122q0 -72 -52 -124t-124 -52t-123 52t-51 124z" />
<glyph unicode="&#xd6;" horiz-adv-x="1654" d="M156 664q0 152 58.5 288.5t159 235t239.5 156t294 57.5q307 0 533 -189q225 -188 225 -524q0 -151 -58 -285t-157 -230t-237.5 -152t-294.5 -56q-155 0 -304.5 57.5t-255.5 157.5q-202 196 -202 484zM598 1677q0 72 52 123t126 51q69 0 120.5 -52t51.5 -122 q0 -72 -52 -124t-124 -52t-123 52t-51 124zM653 659q0 -114 69 -189t173 -75q115 0 193.5 82.5t78.5 202.5q0 115 -69 191.5t-172 76.5q-112 0 -192.5 -85t-80.5 -204zM1122 1677q0 72 52 123t126 51q69 0 121 -52t52 -122q0 -72 -52.5 -124t-124.5 -52t-123 52t-51 124z " />
<glyph unicode="&#xdc;" horiz-adv-x="1552" d="M201 469q0 59 6 111l96 786h502l-92 -756q-8 -78 -8 -100q0 -62 31 -95.5t91 -33.5q71 0 108 49.5t50 161.5l94 774h504l-94 -756q-26 -213 -63.5 -307.5t-127.5 -177.5q-177 -160 -460 -160q-297 0 -484 148q-153 124 -153 356zM547 1677q0 72 52 123t126 51 q69 0 120.5 -52t51.5 -122q0 -72 -52 -124t-124 -52t-123 52t-51 124zM1071 1677q0 72 52 123t126 51q69 0 120.5 -52t51.5 -122q0 -72 -52 -124t-124 -52t-123 52t-51 124z" />
<glyph unicode="&#xdf;" horiz-adv-x="1327" d="M98 0l123 997q20 161 52.5 246.5t97.5 147.5q145 139 424 139q238 0 378 -108.5t140 -291.5q0 -215 -205 -321q113 -43 167 -122.5t54 -203.5q0 -129 -44 -232t-122 -159q-69 -51 -162.5 -72.5t-244.5 -21.5q-66 0 -115 2l31 250q16 -2 47 -2q90 0 112 55q13 30 25 112 t12 140q0 71 -30 101t-113 40l33 260q35 -6 59 -6q46 0 74.5 25t28.5 65q0 38 -30 65.5t-71 27.5q-68 0 -100 -60q-14 -27 -19.5 -51.5t-15.5 -106.5l-113 -915h-473z" />
<glyph unicode="&#xe4;" horiz-adv-x="1335" d="M109 422q0 149 66 280.5t176.5 210t236.5 78.5q143 0 223 -86q33 -38 66 -121l14 7q-10 87 -10 165h471l-117 -956h-471q16 70 53 170l-16 6q-60 -107 -129.5 -155t-163.5 -48q-161 0 -280 134t-119 315zM459 1282q0 72 52 123t126 51q69 0 120.5 -52t51.5 -122 q0 -72 -52 -124t-124 -52t-123 52t-51 124zM586 457q0 -52 33 -86.5t83 -34.5q57 0 96.5 43t39.5 106q0 57 -31.5 93t-81.5 36q-57 0 -98 -46.5t-41 -110.5zM926 1282q0 72 52 123t126 51q69 0 120.5 -52t51.5 -122q0 -72 -52 -124t-124 -52t-123 52t-51 124z" />
<glyph unicode="&#xf6;" horiz-adv-x="1304" d="M117 485q0 148 77 268t213 188.5t304 68.5q126 0 238 -36t196 -102q80 -65 123 -162t43 -214q0 -145 -78 -265t-215 -189t-303 -69q-258 0 -428 145.5t-170 366.5zM406 1282q0 72 52 123t126 51q69 0 120.5 -52t51.5 -122q0 -72 -52 -124t-124 -52t-123 52t-51 124z M586 481q0 -57 35 -95t88 -38q56 0 94.5 43.5t38.5 106.5q0 60 -33.5 98.5t-85.5 38.5q-57 0 -97 -45t-40 -109zM872 1282q0 72 52.5 123t126.5 51q69 0 120.5 -52t51.5 -122q0 -72 -52 -124t-124 -52t-123.5 52t-51.5 124z" />
<glyph unicode="&#xfc;" horiz-adv-x="1296" d="M152 381q0 33 8 111l55 464h475l-57 -464q-8 -78 -8 -84q0 -31 20 -51.5t49 -20.5q19 0 38 10t28 25q12 22 22 102l60 483h475l-66 -526q-17 -134 -50.5 -207t-106.5 -131q-146 -119 -392 -119q-118 0 -215.5 23t-173.5 70.5t-118.5 127.5t-42.5 187zM401 1282 q0 72 52.5 123t126.5 51q69 0 120.5 -52t51.5 -122q0 -72 -52.5 -124t-124.5 -52t-123 52t-51 124zM868 1282q0 72 52.5 123t126.5 51q69 0 120.5 -52t51.5 -122q0 -72 -52.5 -124t-124.5 -52t-123 52t-51 124z" />
<glyph unicode="&#x2c6;" horiz-adv-x="1024" d="M311 1268l389 231l324 -248l-147 -164l-195 160l-262 -160z" />
<glyph unicode="&#x2da;" horiz-adv-x="1024" d="M410 1313q0 92 71 156.5t172 64.5q100 0 169 -66.5t69 -164.5q0 -88 -68 -148.5t-168 -60.5q-103 0 -174 63.5t-71 155.5zM573 1315q0 -32 23 -55t55 -23t55 23t23 55q0 31 -22.5 54.5t-53.5 23.5q-34 0 -57 -23t-23 -55z" />
<glyph unicode="&#x2dc;" horiz-adv-x="1024" d="M295 1200q59 111 117 157t141 46q40 0 69.5 -8.5t129.5 -48.5q29 -13 55 -13t40 14t32 54l178 -76q-22 -43 -42 -73t-48.5 -59t-65.5 -43.5t-82 -14.5q-33 0 -68.5 9.5t-119.5 39.5q-54 20 -82 20q-26 0 -41 -12.5t-35 -52.5z" />
<glyph unicode="&#x2000;" horiz-adv-x="925" />
<glyph unicode="&#x2001;" horiz-adv-x="1851" />
<glyph unicode="&#x2002;" horiz-adv-x="925" />
<glyph unicode="&#x2003;" horiz-adv-x="1851" />
<glyph unicode="&#x2004;" horiz-adv-x="617" />
<glyph unicode="&#x2005;" horiz-adv-x="462" />
<glyph unicode="&#x2006;" horiz-adv-x="308" />
<glyph unicode="&#x2007;" horiz-adv-x="308" />
<glyph unicode="&#x2008;" horiz-adv-x="231" />
<glyph unicode="&#x2009;" horiz-adv-x="370" />
<glyph unicode="&#x200a;" horiz-adv-x="102" />
<glyph unicode="&#x2010;" horiz-adv-x="561" d="M35 285l51 409h561l-51 -409h-561z" />
<glyph unicode="&#x2011;" horiz-adv-x="561" d="M35 285l51 409h561l-51 -409h-561z" />
<glyph unicode="&#x2012;" horiz-adv-x="561" d="M35 285l51 409h561l-51 -409h-561z" />
<glyph unicode="&#x2013;" d="M209 285l51 409h1098l-49 -409h-1100z" />
<glyph unicode="&#x2014;" horiz-adv-x="1652" d="M35 285l51 409h1653l-51 -409h-1653z" />
<glyph unicode="&#x2018;" horiz-adv-x="593" d="M31 690l405 676h365l-301 -676h-469z" />
<glyph unicode="&#x2019;" horiz-adv-x="593" d="M45 690l301 676h469l-405 -676h-365z" />
<glyph unicode="&#x201a;" horiz-adv-x="872" d="M72 -301l301 676h448l-385 -676h-364z" />
<glyph unicode="&#x201c;" horiz-adv-x="1437" d="M180 690l385 676h365l-301 -676h-449zM748 690l385 676h364l-303 -676h-446z" />
<glyph unicode="&#x201d;" horiz-adv-x="1437" d="M195 690l301 676h448l-385 -676h-364zM762 690l301 676h448l-385 -676h-364z" />
<glyph unicode="&#x201e;" horiz-adv-x="1437" d="M72 -301l301 676h448l-385 -676h-364zM639 -301l301 676h449l-385 -676h-365z" />
<glyph unicode="&#x2026;" horiz-adv-x="2181" d="M119 190q0 98 82 170t194 72q109 0 185.5 -67t76.5 -162t-81 -162.5t-195 -67.5q-112 0 -187 62.5t-75 154.5zM846 190q0 98 82 170t194 72q109 0 185.5 -67t76.5 -162t-81 -162.5t-195 -67.5q-112 0 -187 62.5t-75 154.5zM1573 190q0 98 82 170t196 72q109 0 186 -67 t77 -162t-81.5 -162.5t-195.5 -67.5q-112 0 -188 62.5t-76 154.5z" />
<glyph unicode="&#x202f;" horiz-adv-x="370" />
<glyph unicode="&#x2039;" horiz-adv-x="679" d="M129 496l393 477l174 -146l-290 -331l210 -318l-196 -127z" />
<glyph unicode="&#x203a;" horiz-adv-x="679" d="M111 197l288 331l-209 318l197 127l291 -445l-393 -477z" />
<glyph unicode="&#x205f;" horiz-adv-x="462" />
<glyph unicode="&#x20ac;" horiz-adv-x="1433" d="M145 561l134 246h81q34 173 139 308.5t261.5 210.5t337.5 75q177 0 354 -64v-8l-203 -389q-62 16 -106 16q-82 0 -149.5 -38.5t-110.5 -110.5h301l-133 -246h-193q31 -72 96 -112.5t148 -40.5q43 0 102 16l-39 -440q-100 -19 -166 -19q-259 0 -441 166.5t-210 429.5h-203 z" />
<glyph unicode="&#x2122;" horiz-adv-x="1755" d="M129 1102l33 264h600l-33 -264l-131 8l-63 -522h-328l63 522zM694 588l238 778h336l37 -244q6 -50 6 -84q26 76 51 133l84 195h336l10 -778h-317l22 325l-143 -325h-207l-45 334l-78 -334h-330z" />
<glyph unicode="&#xe000;" horiz-adv-x="952" d="M0 0v952h952v-952h-952z" />
</font>
</defs>
</svg>
